<?xml version="1.0" encoding="utf-8"?>
<!-- Generated by IcoMoon.io -->
<!DOCTYPE svg PUBLIC "-//W3C//DTD SVG 1.1//EN" "http://www.w3.org/Graphics/SVG/1.1/DTD/svg11.dtd">
<svg version="1.1" xmlns="http://www.w3.org/2000/svg" xmlns:xlink="http://www.w3.org/1999/xlink" width="1027" height="1024" viewBox="0 0 1027 1024">
<g id="icomoon-ignore">
</g>
<path fill="#000" d="M390.095 0h-292.571c-53.638 0-97.524 43.886-97.524 97.524v292.571c0 53.638 43.886 97.524 97.524 97.524h292.571c53.638 0 97.524-43.886 97.524-97.524v-292.571c0-53.638-43.886-97.524-97.524-97.524zM438.857 390.095c0 26.819-21.943 48.762-48.762 48.762h-292.571c-26.819 0-48.762-21.943-48.762-48.762v-292.571c0-26.819 21.943-48.762 48.762-48.762h292.571c26.819 0 48.762 21.943 48.762 48.762v292.571zM926.476 0h-292.571c-53.638 0-97.524 43.886-97.524 97.524v292.571c0 53.638 43.886 97.524 97.524 97.524h292.571c53.638 0 97.524-43.886 97.524-97.524v-292.571c0-53.638-43.886-97.524-97.524-97.524zM975.238 390.095c0 26.819-21.943 48.762-48.762 48.762h-292.571c-26.819 0-48.762-21.943-48.762-48.762v-292.571c0-26.819 21.943-48.762 48.762-48.762h292.571c26.819 0 48.762 21.943 48.762 48.762v292.571zM390.095 536.381h-292.571c-53.638 0-97.524 43.886-97.524 97.524v292.571c0 53.638 43.886 97.524 97.524 97.524h292.571c53.638 0 97.524-43.886 97.524-97.524v-292.571c0-53.638-43.886-97.524-97.524-97.524zM438.857 926.476c0 26.819-21.943 48.762-48.762 48.762h-292.571c-26.819 0-48.762-21.943-48.762-48.762v-292.571c0-26.819 21.943-48.762 48.762-48.762h292.571c26.819 0 48.762 21.943 48.762 48.762v292.571zM926.476 536.381h-292.571c-53.638 0-97.524 43.886-97.524 97.524v292.571c0 53.638 43.886 97.524 97.524 97.524h292.571c53.638 0 97.524-43.886 97.524-97.524v-292.571c0-53.638-43.886-97.524-97.524-97.524zM975.238 926.476c0 26.819-21.943 48.762-48.762 48.762h-292.571c-26.819 0-48.762-21.943-48.762-48.762v-292.571c0-26.819 21.943-48.762 48.762-48.762h292.571c26.819 0 48.762 21.943 48.762 48.762v292.571z"></path>
</svg>
