<?xml version="1.0" encoding="utf-8"?>
<!-- Generated by IcoMoon.io -->
<!DOCTYPE svg PUBLIC "-//W3C//DTD SVG 1.1//EN" "http://www.w3.org/Graphics/SVG/1.1/DTD/svg11.dtd">
<svg version="1.1" xmlns="http://www.w3.org/2000/svg" xmlns:xlink="http://www.w3.org/1999/xlink" width="1024" height="1024" viewBox="0 0 1024 1024">
<g id="icomoon-ignore">
</g>
<path fill="#000" d="M455.495 805.069c-194.889 0-353.442-158.553-353.442-353.435s158.553-353.434 353.442-353.434 353.449 158.553 353.449 353.434c0 194.881-158.56 353.435-353.449 353.435zM455.495 185.195c-146.921 0-266.444 119.526-266.444 266.44s119.524 266.441 266.444 266.441 266.45-119.526 266.45-266.441c0-146.914-119.53-266.44-266.45-266.44zM868.304 917.955c-13.706 0-27.402-5.228-37.859-15.678l-184.655-184.641c-20.906-20.906-20.906-54.804 0-75.714 20.914-20.9 54.806-20.9 75.718 0l184.654 184.641c20.907 20.906 20.907 54.804 0 75.714-10.458 10.45-24.154 15.678-37.859 15.678z"></path>
</svg>
